<svg xmlns="http://www.w3.org/2000/svg" width="220" height="40" viewBox="0 0 220 40" fill="none">
  <g clip-path="url(#clip0_123_4697)">
    <path d="M122.011 21.6715C127.018 21.6715 132.05 19.5652 132.85 12.9402H126.843C126.167 15.3321 124.389 16.4215 122.011 16.4215C118.932 16.4215 116.528 14.175 116.528 10.8382C116.528 7.47743 118.932 5.25408 122.011 5.25408C124.389 5.25408 126.167 6.34425 126.843 8.68818H132.85C132.05 2.10629 126.968 0 122.011 0C115.007 0 110.31 4.38252 110.31 10.8382C110.31 17.2932 115.007 21.6715 122.011 21.6715ZM155.672 21.0078L151.821 14.2328C153.719 13.051 155.045 11.0709 155.045 8.27637C155.045 3.13793 151.872 0.667779 146.089 0.667779H134.408V21.0078H140.687V15.4873H146.439L149.493 21.0078H155.672ZM140.687 5.72442H145.688C147.691 5.72442 148.768 6.64394 148.768 8.32502C148.768 10.0054 147.691 10.9256 145.688 10.9256H140.687V5.72442ZM157.189 21.0078H175.709V16.0972H163.468V12.8669H175.259V8.77491H163.468V5.54954H175.709V0.667779H157.189V21.0078ZM199.096 0.667779H177.497V5.75333H185.156V21.0078H191.436V5.75333H199.096V0.667779ZM200.873 21.0078H219.394V16.0972H207.152V12.8669H218.943V8.77491H207.152V5.54954H219.394V0.667779H200.873V21.0078Z" fill="#E91F27"/>
    <path d="M9.35864 37.4872C10.011 37.0549 10.3367 36.4464 10.3367 35.6602C10.3367 34.9007 10.0038 34.3147 9.33731 33.9022C8.67152 33.4897 7.68635 33.2838 6.38252 33.2838H1.68361V38.1352H6.67985C7.81368 38.1352 8.70709 37.9195 9.35864 37.4872ZM8.54918 31.2854C9.1865 30.8665 9.50518 30.2509 9.50518 29.4393C9.50518 28.7447 9.22207 28.1947 8.65516 27.7885C8.08895 27.3831 7.27379 27.18 6.2111 27.18H1.68361V31.9144H6.08378C7.08957 31.9144 7.91113 31.7049 8.54918 31.2854ZM8.33863 26.0553C8.93399 26.2182 9.44471 26.446 9.87012 26.74C10.2962 27.0333 10.622 27.3923 10.8489 27.8153C11.0757 28.2399 11.1895 28.7123 11.1895 29.2341C11.1895 29.6904 11.122 30.0887 10.9868 30.4272C10.8524 30.7664 10.6717 31.0661 10.4448 31.327C10.2179 31.5886 9.96686 31.8065 9.69008 31.9827C9.41412 32.1584 9.12676 32.305 8.82943 32.4228C9.26902 32.5399 9.68297 32.6936 10.0735 32.8825C10.4634 33.0715 10.8005 33.2965 11.0842 33.5574C11.3681 33.8183 11.595 34.1314 11.765 34.4966C11.935 34.8619 12.0204 35.2786 12.0204 35.7483C12.0204 36.3357 11.8923 36.8639 11.6377 37.3327C11.3824 37.8024 11.0167 38.1973 10.5416 38.5167C10.0664 38.8362 9.49593 39.0808 8.82943 39.2501C8.16222 39.42 7.42459 39.5046 6.61654 39.5046H-6.10352e-05V25.8105H6.33913C7.07676 25.8105 7.74326 25.8924 8.33863 26.0553Z" fill="white"/>
    <path d="M33.9082 33.6553C33.9082 34.6594 33.7589 35.5402 33.4608 36.2961C33.1621 37.0527 32.7396 37.6852 32.1926 38.1937C31.6456 38.7028 30.9919 39.0843 30.2315 39.3382C29.4718 39.5926 28.6225 39.7196 27.685 39.7196C26.761 39.7196 25.9195 39.5926 25.1591 39.3382C24.3995 39.0843 23.7451 38.7056 23.1987 38.2035C22.6518 37.7015 22.2293 37.0788 21.9305 36.3356C21.6325 35.5917 21.4831 34.7377 21.4831 33.7724V25.8105H23.1667V33.675C23.1667 35.1615 23.5679 36.3031 24.371 37.0985C25.1733 37.894 26.2923 38.2917 27.7276 38.2917C29.1055 38.2917 30.1995 37.9137 31.0097 37.1571C31.8198 36.4012 32.2246 35.2729 32.2246 33.7724V25.8105H33.9082V33.6553Z" fill="white"/>
    <path d="M46.4822 39.5046H44.7986V25.8105H46.4822V39.5046Z" fill="white"/>
    <path d="M57.6072 25.8105H59.2909V38.0767H67.6878V39.5046H57.6072V25.8105Z" fill="white"/>
    <path d="M87.1995 30.544C86.9078 29.879 86.4959 29.3021 85.9632 28.8128C85.4304 28.3235 84.7803 27.9391 84.0135 27.6585C83.246 27.3779 82.3932 27.2375 81.4556 27.2375H77.9602V38.0757H81.4556C82.3932 38.0757 83.246 37.9389 84.0135 37.6646C84.7803 37.391 85.4304 37.0095 85.9632 36.5208C86.4959 36.0315 86.9078 35.461 87.1995 34.8087C87.4904 34.1572 87.6362 33.4463 87.6362 32.6763C87.6362 31.9204 87.4904 31.2097 87.1995 30.544ZM88.8084 35.3467C88.425 36.1879 87.8816 36.915 87.1781 37.5278C86.4746 38.1413 85.636 38.6236 84.6636 38.9755C83.6898 39.328 82.6208 39.5036 81.4556 39.5036H76.2766V25.8096H81.4556C82.6208 25.8096 83.6898 25.983 84.6636 26.3285C85.636 26.674 86.4746 27.1529 87.1781 27.7657C87.8816 28.3792 88.425 29.1034 88.8084 29.9376C89.1925 30.7724 89.3839 31.6722 89.3839 32.6376C89.3839 33.6022 89.1925 34.5055 88.8084 35.3467Z" fill="white"/>
    <path d="M110.058 27.2187H100.957V31.8939H109.099V33.3027H100.957V38.0957H110.164V39.5045H99.2728V25.8105H110.058V27.2187Z" fill="white"/>
    <path d="M128.575 27.9549C127.905 27.4776 126.966 27.2385 125.754 27.2385H121.14V32.8142H125.733C126.289 32.8142 126.802 32.7485 127.272 32.6174C127.742 32.4869 128.148 32.3001 128.49 32.0583C128.832 31.8164 129.099 31.5181 129.292 31.1648C129.484 30.8115 129.58 30.4125 129.58 29.9675C129.58 29.1037 129.245 28.433 128.575 27.9549ZM129.729 39.5046L125.403 34.1836H121.14V39.5046H119.456V25.8105H125.872C126.695 25.8105 127.438 25.9086 128.099 26.104C128.76 26.3 129.324 26.5771 129.793 26.936C130.262 27.2949 130.624 27.7251 130.88 28.2279C131.135 28.7299 131.263 29.2877 131.263 29.9012C131.263 30.4752 131.164 30.9878 130.965 31.4377C130.766 31.8876 130.485 32.2797 130.123 32.6118C129.761 32.9446 129.33 33.2217 128.833 33.4439C128.336 33.666 127.796 33.8225 127.214 33.9135L131.796 39.5046H129.729Z" fill="white"/>
    <path d="M141.813 30.099C141.927 30.3599 142.132 30.5989 142.431 30.8141C142.729 31.0298 143.142 31.2259 143.668 31.4022C144.192 31.5784 144.868 31.7448 145.692 31.9014C147.354 32.2413 148.58 32.7109 149.368 33.3124C150.156 33.9132 150.551 34.7424 150.551 35.8002C150.551 36.3883 150.425 36.9242 150.173 37.4072C149.92 37.8909 149.571 38.3021 149.128 38.6419C148.684 38.9811 148.15 39.2427 147.525 39.4253C146.899 39.608 146.217 39.6997 145.48 39.6997C144.285 39.6997 143.194 39.5226 142.207 39.1694C141.22 38.8161 140.278 38.2689 139.383 37.5278L140.427 36.3932C141.209 37.0462 141.997 37.5313 142.793 37.8507C143.589 38.1709 144.505 38.3303 145.542 38.3303C146.551 38.3303 147.358 38.1144 147.962 37.6836C148.565 37.2527 148.868 36.6845 148.868 35.9793C148.868 35.6528 148.811 35.3623 148.696 35.107C148.583 34.8524 148.384 34.6211 148.098 34.4117C147.813 34.2023 147.418 34.0133 146.912 33.8434C146.408 33.6734 145.762 33.5105 144.979 33.3533C144.125 33.1841 143.38 32.988 142.747 32.7659C142.112 32.5438 141.589 32.2758 141.177 31.962C140.763 31.6489 140.457 31.2837 140.258 30.8655C140.058 30.4473 139.958 29.9509 139.958 29.3763C139.958 28.8276 140.079 28.3248 140.321 27.8679C140.563 27.4103 140.903 27.0154 141.345 26.6819C141.785 26.349 142.303 26.0881 142.9 25.8984C143.497 25.7087 144.15 25.6143 144.861 25.6143C145.955 25.6143 146.91 25.7524 147.727 26.0288C148.544 26.3053 149.337 26.7213 150.103 27.277L149.123 28.4701C148.427 27.949 147.727 27.5704 147.024 27.3355C146.32 27.1007 145.585 26.9837 144.819 26.9837C144.334 26.9837 143.898 27.0422 143.507 27.16C143.116 27.2777 142.783 27.4343 142.506 27.6303C142.229 27.8264 142.015 28.0611 141.866 28.3354C141.716 28.6104 141.642 28.9038 141.642 29.2168C141.642 29.5441 141.699 29.8381 141.813 30.099Z" fill="white"/>
    <path d="M173.167 39.5046H171.484V25.8105H173.167V39.5046Z" fill="white"/>
    <path d="M194.842 25.8105H196.483V39.5046H195.14L185.506 28.2751V39.5046H183.865V25.8105H185.444L194.842 36.7856V25.8105Z" fill="white"/>
    <path d="M218.19 38.3208C217.771 38.6141 217.319 38.8652 216.836 39.0739C216.353 39.2826 215.834 39.4455 215.28 39.5633C214.727 39.6803 214.108 39.7388 213.426 39.7388C212.346 39.7388 211.352 39.5562 210.443 39.1909C209.533 38.8263 208.744 38.3271 208.077 37.6946C207.409 37.062 206.886 36.3153 206.511 35.4543C206.134 34.5941 205.945 33.6681 205.945 32.6767C205.945 31.6987 206.134 30.7792 206.511 29.9182C206.886 29.058 207.409 28.3048 208.077 27.6589C208.744 27.013 209.54 26.5045 210.464 26.1329C211.387 25.7613 212.396 25.5752 213.49 25.5752C214.172 25.5752 214.787 25.6274 215.334 25.7317C215.881 25.8361 216.389 25.9835 216.858 26.1718C217.326 26.3614 217.761 26.5892 218.157 26.8564C218.555 27.1244 218.938 27.4205 219.308 27.747L218.157 28.8817C217.518 28.3338 216.833 27.8839 216.101 27.5313C215.369 27.1794 214.492 27.0031 213.469 27.0031C212.645 27.0031 211.881 27.1469 211.178 27.434C210.475 27.7209 209.864 28.1186 209.345 28.6271C208.826 29.1361 208.422 29.7327 208.131 30.4175C207.838 31.1021 207.693 31.8419 207.693 32.6373C207.693 33.4334 207.838 34.1766 208.131 34.8677C208.422 35.5594 208.826 36.1588 209.345 36.6679C209.864 37.1763 210.475 37.5776 211.178 37.8709C211.881 38.1642 212.645 38.3109 213.469 38.3109C214.492 38.3109 215.373 38.1381 216.112 37.7926C216.851 37.4471 217.575 36.9613 218.286 36.3351L219.394 37.3329C219.01 37.6981 218.609 38.0275 218.19 38.3208Z" fill="white"/>
    <path d="M97.142 16.4223C94.053 16.4223 91.5698 14.316 91.5698 10.8382C91.5698 7.36107 94.053 5.25479 97.142 5.25479C100.232 5.25479 102.715 7.36107 102.715 10.8382C102.715 14.316 100.232 16.4223 97.142 16.4223ZM97.142 0C90.022 0 85.3508 4.38322 85.3508 10.8382C85.3508 17.2938 90.022 21.6721 97.142 21.6721C104.262 21.6721 108.933 17.2938 108.933 10.8382C108.933 4.38322 104.262 0 97.142 0Z" fill="white"/>
    <path d="M74.8666 10.9261H69.8654V5.72488H74.8666C76.8697 5.72488 77.9458 6.64511 77.9458 8.32548C77.9458 10.0058 76.8697 10.9261 74.8666 10.9261ZM84.2246 8.27682C84.2246 3.13909 81.0501 0.668945 75.2678 0.668945H63.5867V21.0083H69.8654V15.4877H75.6178L78.6721 21.0083H84.8506L81.0002 14.2339C82.8973 13.0521 84.2246 11.0713 84.2246 8.27682Z" fill="white"/>
    <path d="M52.0857 10.9261H47.0839V5.72488H52.0857C54.0881 5.72488 55.165 6.64511 55.165 8.32548C55.165 10.0058 54.0881 10.9261 52.0857 10.9261ZM61.4437 8.27682C61.4437 3.13909 58.2692 0.668945 52.4862 0.668945H40.8051V21.0083H47.0839V15.4877H52.8369L55.8913 21.0083H62.0697L58.2194 14.2339C60.1172 13.0521 61.4437 11.0713 61.4437 8.27682Z" fill="white"/>
    <path d="M20.3776 21.0081H38.898V16.0974H26.6563V12.8671H38.4477V8.7751H26.6563V5.54973H38.898V0.667969H20.3776V21.0081Z" fill="white"/>
    <path d="M6.10352e-05 21.0081H6.27879V13.628H17.8945V9.21088H6.27879V5.75352H18.4699V0.667969H6.10352e-05V21.0081Z" fill="white"/>
  </g>
  <defs>
    <clipPath id="clip0_123_4697">
      <rect width="220" height="40" fill="white"/>
    </clipPath>
  </defs>
</svg>